<svg width="25" height="25" viewBox="0 0 25 25" fill="none" xmlns="http://www.w3.org/2000/svg">
<path d="M11.5 1V19.75" stroke="white" stroke-width="1.5" stroke-linecap="round" stroke-linejoin="round"/>
<path d="M11.5 2.5H22.75C22.8925 2.50005 23.0321 2.54071 23.1523 2.6172C23.2725 2.6937 23.3685 2.80287 23.4289 2.93193C23.4894 3.06099 23.5118 3.2046 23.4936 3.34594C23.4753 3.48728 23.4172 3.6205 23.326 3.73L19.926 6.52C19.8136 6.65468 19.752 6.82456 19.752 7C19.752 7.17544 19.8136 7.34532 19.926 7.48L23.326 10.27C23.4172 10.3795 23.4753 10.5127 23.4936 10.6541C23.5118 10.7954 23.4894 10.939 23.4289 11.0681C23.3685 11.1971 23.2725 11.3063 23.1523 11.3828C23.0321 11.4593 22.8925 11.4999 22.75 11.5H11.5" stroke="white" stroke-width="1.5" stroke-linecap="round" stroke-linejoin="round"/>
<path d="M14.49 16.1484C18.833 16.6084 22 18.0484 22 19.7484C22 21.8194 17.3 23.4984 11.5 23.4984C5.7 23.4984 1 21.8194 1 19.7484C1 18.0794 4.054 16.6644 8.276 16.1784" stroke="white" stroke-width="1.5" stroke-linecap="round" stroke-linejoin="round"/>
</svg>
