<svg width="32" height="41" viewBox="0 0 32 41" fill="none" xmlns="http://www.w3.org/2000/svg">
<path d="M19.75 1.625H4.75C3.75544 1.625 2.80161 2.02009 2.09835 2.72335C1.39509 3.42661 1 4.38044 1 5.375V35.375C1 36.3696 1.39509 37.3234 2.09835 38.0266C2.80161 38.7299 3.75544 39.125 4.75 39.125H27.25C28.2446 39.125 29.1984 38.7299 29.9016 38.0266C30.6049 37.3234 31 36.3696 31 35.375V12.875L19.75 1.625Z" stroke="#F84B4B" stroke-width="2" stroke-linecap="round" stroke-linejoin="round"/>
<path d="M19.75 1.625V12.875H31" stroke="#F84B4B" stroke-width="2" stroke-linecap="round" stroke-linejoin="round"/>
<path d="M23.5 22.25H8.5" stroke="#F84B4B" stroke-width="2" stroke-linecap="round" stroke-linejoin="round"/>
<path d="M23.5 29.75H8.5" stroke="#F84B4B" stroke-width="2" stroke-linecap="round" stroke-linejoin="round"/>
<path d="M12.25 14.75H10.375H8.5" stroke="#F84B4B" stroke-width="2" stroke-linecap="round" stroke-linejoin="round"/>
</svg>
