<svg width="23" height="23" viewBox="0 0 23 23" fill="none" xmlns="http://www.w3.org/2000/svg">
<path d="M10 3.125H3C2.46957 3.125 1.96086 3.33571 1.58579 3.71079C1.21071 4.08586 1 4.59457 1 5.125V19.125C1 19.6554 1.21071 20.1641 1.58579 20.5392C1.96086 20.9143 2.46957 21.125 3 21.125H17C17.5304 21.125 18.0391 20.9143 18.4142 20.5392C18.7893 20.1641 19 19.6554 19 19.125V12.125" stroke="#A3A3A3" stroke-width="2" stroke-linecap="round" stroke-linejoin="round"/>
<path d="M17.5 1.62132C17.8978 1.2235 18.4374 1 19 1C19.5626 1 20.1022 1.2235 20.5 1.62132C20.8978 2.01915 21.1213 2.55871 21.1213 3.12132C21.1213 3.68393 20.8978 4.2235 20.5 4.62132L11 14.1213L7 15.1213L8 11.1213L17.5 1.62132Z" stroke="#A3A3A3" stroke-width="2" stroke-linecap="round" stroke-linejoin="round"/>
</svg>
