<svg width="20" height="24" viewBox="0 0 20 24" fill="none" xmlns="http://www.w3.org/2000/svg">
<path d="M17.5 5.5L18.25 6.25" stroke="#B5A6A6" stroke-width="1.5" stroke-linecap="round" stroke-linejoin="round"/>
<path d="M1 14.25C1 15.4319 1.23279 16.6022 1.68508 17.6942C2.13738 18.7861 2.80031 19.7782 3.63604 20.614C4.47177 21.4497 5.46392 22.1126 6.55585 22.5649C7.64778 23.0172 8.8181 23.25 10 23.25C11.1819 23.25 12.3522 23.0172 13.4442 22.5649C14.5361 22.1126 15.5282 21.4497 16.364 20.614C17.1997 19.7782 17.8626 18.7861 18.3149 17.6942C18.7672 16.6022 19 15.4319 19 14.25C19 13.0681 18.7672 11.8978 18.3149 10.8058C17.8626 9.71392 17.1997 8.72177 16.364 7.88604C15.5282 7.05031 14.5361 6.38738 13.4442 5.93508C12.3522 5.48279 11.1819 5.25 10 5.25C8.8181 5.25 7.64778 5.48279 6.55585 5.93508C5.46392 6.38738 4.47177 7.05031 3.63604 7.88604C2.80031 8.72177 2.13738 9.71392 1.68508 10.8058C1.23279 11.8978 1 13.0681 1 14.25Z" stroke="#B5A6A6" stroke-width="1.5" stroke-linecap="round" stroke-linejoin="round"/>
<path d="M16 7.75L17.875 5.875" stroke="#B5A6A6" stroke-width="1.5" stroke-linecap="round" stroke-linejoin="round"/>
<path d="M10 5.5V1" stroke="#B5A6A6" stroke-width="1.5" stroke-linecap="round" stroke-linejoin="round"/>
<path d="M12.25 1H7.75" stroke="#B5A6A6" stroke-width="1.5" stroke-linecap="round" stroke-linejoin="round"/>
<path d="M10 15.2526L6.25 11.1016" stroke="#B5A6A6" stroke-width="1.5" stroke-linecap="round" stroke-linejoin="round"/>
</svg>
