<svg width="84" height="102" viewBox="0 0 84 102" fill="none" xmlns="http://www.w3.org/2000/svg">
<path d="M72.4844 23.6094L75.5518 26.7105" stroke="white" stroke-width="9" stroke-linecap="round" stroke-linejoin="round"/>
<path d="M5 59.7838C5 64.6708 5.95209 69.5097 7.8019 74.025C9.65176 78.5398 12.3631 82.642 15.7811 86.0979C19.1992 89.5533 23.2569 92.2943 27.7228 94.1645C32.1887 96.0347 36.9752 96.9973 41.809 96.9973C46.6428 96.9973 51.4292 96.0347 55.8954 94.1645C60.3611 92.2943 64.4187 89.5533 67.837 86.0979C71.255 82.642 73.9661 78.5398 75.816 74.025C77.6658 69.5097 78.618 64.6708 78.618 59.7838C78.618 54.8968 77.6658 50.0578 75.816 45.5426C73.9661 41.0279 71.255 36.9255 67.837 33.4699C64.4187 30.0143 60.3611 27.2732 55.8954 25.403C51.4292 23.5329 46.6428 22.5703 41.809 22.5703C36.9752 22.5703 32.1887 23.5329 27.7228 25.403C23.2569 27.2732 19.1992 30.0143 15.7811 33.4699C12.3631 36.9255 9.65176 41.0279 7.8019 45.5426C5.95209 50.0578 5 54.8968 5 59.7838Z" stroke="white" stroke-width="9" stroke-linecap="round" stroke-linejoin="round"/>
<path d="M68 31.2847L74 25.2188" stroke="white" stroke-width="9" stroke-linecap="round" stroke-linejoin="round"/>
<path d="M42 20.1648L41.8125 5" stroke="white" stroke-width="9" stroke-linecap="round" stroke-linejoin="round"/>
<path d="M51.0139 5H32.6094" stroke="white" stroke-width="9" stroke-linecap="round" stroke-linejoin="round"/>
<path d="M41.8136 63.9293L26.4766 46.7656" stroke="white" stroke-width="9" stroke-linecap="round" stroke-linejoin="round"/>
</svg>
