<svg width="39" height="46" viewBox="0 0 39 46" fill="none" xmlns="http://www.w3.org/2000/svg">
<path d="M20 31C28.2843 31 35 24.2843 35 16C35 7.71573 28.2843 1 20 1C11.7157 1 5 7.71573 5 16C5 24.2843 11.7157 31 20 31Z" stroke="#B5B0B0" stroke-width="2" stroke-linecap="round" stroke-linejoin="round"/>
<path d="M17 10L26 16L17 22V10Z" stroke="#B5B0B0" stroke-width="2" stroke-linecap="round" stroke-linejoin="round"/>
<path d="M0.344 39.4H1.28L3.272 43.864L5.272 39.4H6.192L3.64 45H2.912L0.344 39.4ZM7.98969 45.096C7.30169 45.096 6.76035 44.9093 6.36569 44.536C5.97102 44.1627 5.77369 43.6427 5.77369 42.976C5.77369 42.304 5.97369 41.7787 6.37369 41.4C6.77902 41.0213 7.32569 40.832 8.01369 40.832C8.69635 40.832 9.23502 41.0213 9.62969 41.4C10.0244 41.7733 10.2217 42.2933 10.2217 42.96V43.144H6.57369C6.60035 43.5173 6.73369 43.8187 6.97369 44.048C7.21369 44.272 7.55235 44.384 7.98969 44.384C8.34702 44.384 8.63769 44.3093 8.86169 44.16C9.08569 44.0107 9.23769 43.7947 9.31769 43.512H10.1737C10.0564 44.0133 9.81102 44.4027 9.43769 44.68C9.06435 44.952 8.58169 45.0907 7.98969 45.096ZM9.38969 42.608C9.33635 42.2773 9.19235 42.016 8.95769 41.824C8.72835 41.632 8.40569 41.536 7.98969 41.536C7.63235 41.536 7.33102 41.6267 7.08569 41.808C6.84035 41.9893 6.68302 42.256 6.61369 42.608H9.38969ZM10.9065 40.936H11.6745V41.496C11.8292 41.2987 12.0265 41.152 12.2665 41.056C12.5065 40.9547 12.7572 40.904 13.0185 40.904C13.1732 40.904 13.3225 40.92 13.4665 40.952L13.3625 41.672C13.2132 41.6453 13.0745 41.632 12.9465 41.632C12.5945 41.632 12.2932 41.7147 12.0425 41.88C11.7972 42.04 11.6745 42.2773 11.6745 42.592V45H10.9065V40.936ZM16.7424 40.984H17.6624L19.0624 44.016L20.4784 40.984H21.3584L19.3904 45H18.6944L16.7424 40.984ZM22.0473 40.984H22.8153V45H22.0473V40.984ZM22.0393 39.4H22.8233V40.344H22.0393V39.4ZM25.549 45.064C24.8983 45.064 24.3863 44.8747 24.013 44.496C23.6397 44.1173 23.453 43.6 23.453 42.944C23.453 42.304 23.629 41.792 23.981 41.408C24.3383 41.024 24.8317 40.832 25.461 40.832C26.085 40.832 26.589 41.0507 26.973 41.488V39.4H27.741V45H26.973V44.512C26.7863 44.6987 26.5703 44.8373 26.325 44.928C26.085 45.0187 25.8263 45.064 25.549 45.064ZM25.629 44.384C26.0717 44.384 26.4077 44.2773 26.637 44.064C26.8663 43.8453 26.981 43.5227 26.981 43.096V42.792C26.981 42.408 26.853 42.104 26.597 41.88C26.3463 41.6507 26.005 41.536 25.573 41.536C25.1783 41.536 24.8583 41.6533 24.613 41.888C24.373 42.1227 24.253 42.4773 24.253 42.952C24.253 43.4267 24.373 43.784 24.613 44.024C24.853 44.264 25.1917 44.384 25.629 44.384ZM30.6147 45.096C29.9267 45.096 29.3854 44.9093 28.9907 44.536C28.596 44.1627 28.3987 43.6427 28.3987 42.976C28.3987 42.304 28.5987 41.7787 28.9987 41.4C29.404 41.0213 29.9507 40.832 30.6387 40.832C31.3214 40.832 31.86 41.0213 32.2547 41.4C32.6494 41.7733 32.8467 42.2933 32.8467 42.96V43.144H29.1987C29.2254 43.5173 29.3587 43.8187 29.5987 44.048C29.8387 44.272 30.1774 44.384 30.6147 44.384C30.972 44.384 31.2627 44.3093 31.4867 44.16C31.7107 44.0107 31.8627 43.7947 31.9427 43.512H32.7987C32.6814 44.0133 32.436 44.4027 32.0627 44.68C31.6894 44.952 31.2067 45.0907 30.6147 45.096ZM32.0147 42.608C31.9614 42.2773 31.8174 42.016 31.5827 41.824C31.3534 41.632 31.0307 41.536 30.6147 41.536C30.2574 41.536 29.956 41.6267 29.7107 41.808C29.4654 41.9893 29.308 42.256 29.2387 42.608H32.0147ZM35.7475 45.096C35.0542 45.096 34.5102 44.9093 34.1155 44.536C33.7262 44.1573 33.5315 43.6347 33.5315 42.968C33.5315 42.5307 33.6222 42.152 33.8035 41.832C33.9902 41.5067 34.2515 41.2587 34.5875 41.088C34.9288 40.9173 35.3235 40.832 35.7715 40.832C36.4542 40.832 36.9928 41.0213 37.3875 41.4C37.7875 41.7733 37.9875 42.2933 37.9875 42.96C37.9875 43.3973 37.8942 43.776 37.7075 44.096C37.5262 44.416 37.2675 44.664 36.9315 44.84C36.5955 45.0107 36.2008 45.096 35.7475 45.096ZM35.7475 44.384C36.2168 44.384 36.5742 44.2587 36.8195 44.008C37.0702 43.752 37.1955 43.4027 37.1955 42.96C37.1955 42.5173 37.0702 42.1707 36.8195 41.92C36.5742 41.664 36.2195 41.536 35.7555 41.536C35.2915 41.536 34.9342 41.664 34.6835 41.92C34.4382 42.1707 34.3155 42.52 34.3155 42.968C34.3155 43.4107 34.4382 43.7573 34.6835 44.008C34.9288 44.2587 35.2835 44.384 35.7475 44.384Z" fill="#B1B1B1"/>
</svg>
